PathFileType  4	(X/Y/Z) C:\Users\antoi\Documents\MyRepositories\mobilecap\ResultsAnalysis
DataRate	CameraRate	NumFrames	NumMarkers	Units	OrigDataRate	OrigDataStartFrame	OrigNumFrames
100.0	100.0	5	51	mm	100.0	1	142
Frame#	Time	r_knee			r_shank_antsup			r_ankle			r_calc			r_5meta			r_toe			L_knee			L_shank_antsup			L_ankle			L_calc			L_5meta			L_toe			r_sh2			r_sh3			r_sh4			L_sh2			L_sh3			r_thigh1			r_thigh2			r_thigh3			r_thigh4			r_thigh5			L_thigh1			L_thigh2			L_thigh3			L_thigh4			r.ASIS			r.PSIS			L.ASIS			L.PSIS			C7			R_Shoulder			L_Shoulder			R_Sternum			L_Sternum			R_humerus			R_elbow_med			R_elbow_lat			R_forearm			R_wrist_radius			R_wrist_ulna			L_humerus			L_elbow_med			L_elbow_lat			L_forearm			L_wrist_radius			L_wrist_ulna			R_HJC			L_HJC			R_HJC_reg			L_HJC_reg			
		X1	Y1	Z1	X2	Y2	Z2	X3	Y3	Z3	X4	Y4	Z4	X5	Y5	Z5	X6	Y6	Z6	X7	Y7	Z7	X8	Y8	Z8	X9	Y9	Z9	X10	Y10	Z10	X11	Y11	Z11	X12	Y12	Z12	X13	Y13	Z13	X14	Y14	Z14	X15	Y15	Z15	X16	Y16	Z16	X17	Y17	Z17	X18	Y18	Z18	X19	Y19	Z19	X20	Y20	Z20	X21	Y21	Z21	X22	Y22	Z22	X23	Y23	Z23	X24	Y24	Z24	X25	Y25	Z25	X26	Y26	Z26	X27	Y27	Z27	X28	Y28	Z28	X29	Y29	Z29	X30	Y30	Z30	X31	Y31	Z31	X32	Y32	Z32	X33	Y33	Z33	X34	Y34	Z34	X35	Y35	Z35	X36	Y36	Z36	X37	Y37	Z37	X38	Y38	Z38	X39	Y39	Z39	X40	Y40	Z40	X41	Y41	Z41	X42	Y42	Z42	X43	Y43	Z43	X44	Y44	Z44	X45	Y45	Z45	X46	Y46	Z46	X47	Y47	Z47	X48	Y48	Z48	X49	Y49	Z49	X50	Y50	Z50	X51	Y51	Z51	

1	0.00000000	44.36411	497.93042	-100.77639	108.40694	453.38297	-113.58018	176.01942	113.45229	-94.30140	126.33642	53.08636	-127.90605	297.66366	98.58485	-65.73181	328.09339	144.90058	-121.11456	-261.37373	487.24697	-416.24434	-264.05277	383.96120	-424.34490	-439.05280	119.39713	-406.87990	-518.20776	90.88159	-366.30827	-348.51649	39.95667	-441.92908	-305.24732	58.70903	-384.23523	126.47984	342.04897	-83.20148	29.88463	438.39444	-85.22993	53.34162	327.91435	-77.53693	-342.96015	428.69569	-428.61458	-391.88122	316.54416	-436.35257	-28.32976	808.04441	-84.58627	11.78357	701.64639	-85.86268	-35.19948	661.95447	-58.11082	-134.36909	767.35892	-70.80932	-92.30426	658.56420	-74.81544	-161.00064	737.36935	-460.33341	-185.84240	605.16836	-436.95870	-258.79336	762.79343	-402.52282	-285.30992	624.09503	-397.00883	-48.28180	952.66184	-143.14751	-240.53342	979.08626	-208.46397	-53.66361	921.66529	-395.14141	-251.41306	984.47019	-308.21199	-241.28882	1391.53934	-327.50971	-159.75057	1370.07434	-137.68920	-145.37055	1335.81827	-493.62331	-106.45424	1352.41062	-291.39720	-98.51914	1349.27886	-334.50594	-181.03685	1250.22657	-52.01212	-264.08486	1043.04855	-61.67705	-256.42798	1071.99139	5.17726	-171.77414	961.30086	45.44101	-118.75420	838.43378	73.03547	-148.28968	829.83220	89.36340	-92.62288	1227.29849	-538.89951	-60.32033	996.57516	-478.18910	-26.85755	1024.04942	-544.53697	78.39355	983.34346	-514.60412	197.53550	882.49549	-490.35532	182.91420	864.16669	-518.26680	-122.98123	869.06063	-155.01162	-135.68619	853.44395	-360.49787	-108.98801	852.73366	-175.59970	-127.13495	861.71414	-341.97730	
2	0.01000000	56.69540	497.05953	-99.52506	119.20053	451.30862	-112.33872	180.59538	110.75358	-93.59250	129.31907	54.31073	-127.46611	301.66099	90.72641	-65.47067	334.15648	136.03324	-120.39225	-250.31035	486.22587	-414.78800	-255.13014	382.88236	-423.43957	-436.26825	122.69610	-406.90398	-515.83585	96.18408	-366.39803	-347.89651	40.14319	-441.94529	-304.06542	58.20256	-384.47458	135.60918	339.46785	-82.50131	40.66832	437.40541	-84.35591	62.22868	326.62347	-76.88717	-332.81512	429.36733	-427.39386	-384.42107	318.52335	-435.43195	-13.08882	808.35637	-84.13222	26.68624	701.72016	-85.01357	-19.79931	662.44474	-56.46666	-119.03053	768.10605	-67.96419	-76.90507	658.80420	-72.17132	-149.40502	736.03074	-458.78229	-174.63868	603.88158	-435.67530	-246.66213	761.66357	-400.06325	-273.66339	622.98803	-394.73316	-34.44752	952.37963	-142.17793	-227.21345	978.40931	-206.43149	-41.16824	919.96281	-394.00927	-238.43822	983.22132	-306.07303	-228.39560	1390.63282	-323.63976	-146.83968	1367.62056	-133.98343	-132.40407	1336.61044	-490.31005	-93.40397	1351.35511	-287.80423	-85.51907	1348.63345	-330.89625	-168.09354	1247.35238	-49.11527	-251.48097	1040.36463	-59.84084	-243.97850	1069.03056	7.09276	-160.28150	957.77906	47.59773	-108.34301	834.50566	75.16794	-137.99729	826.01424	91.29086	-79.51628	1228.14900	-536.24056	-47.22979	996.01338	-476.66287	-14.91337	1024.50977	-543.23876	90.09904	983.27277	-513.32240	208.90298	881.93360	-489.07899	194.44762	863.91651	-517.08156	-109.15475	868.68643	-153.10694	-123.05630	851.94531	-358.41830	-95.48765	852.24435	-173.84282	-114.23421	860.27765	-340.24240	
3	0.02000000	68.96487	496.32866	-98.20679	130.00131	449.34684	-111.15838	185.25583	108.15333	-92.96125	132.28011	55.59197	-127.18013	305.54759	83.11409	-65.31153	340.08087	127.35536	-119.81973	-238.89282	485.18923	-413.24673	-245.87178	381.83275	-422.47828	-433.25118	126.20319	-406.90997	-513.22505	101.81351	-366.46186	-347.22249	40.40973	-441.94284	-302.85183	57.67335	-384.70022	144.88736	337.06796	-81.77436	51.56105	436.55274	-83.31425	71.28085	325.47553	-76.09822	-322.30743	430.10973	-426.09084	-376.65541	320.62656	-434.44558	2.11371	808.75420	-83.54829	41.53679	701.85924	-84.12657	-4.55481	663.02714	-54.81038	-103.67407	769.04566	-65.09039	-61.83148	659.32329	-69.52822	-137.62191	734.73437	-457.13167	-163.14670	602.61128	-434.29343	-234.36339	760.49732	-397.53751	-261.75030	621.83174	-392.38955	-20.56797	952.24730	-141.13506	-213.83355	977.85804	-204.32993	-28.59527	918.35812	-392.77486	-225.41236	982.03398	-303.87956	-215.43784	1389.81506	-319.74618	-133.84788	1365.23676	-130.25945	-119.36906	1337.44344	-486.95994	-80.30028	1350.38200	-284.18610	-72.45983	1348.07468	-327.26482	-155.04949	1244.53842	-46.20196	-238.74585	1037.72701	-57.98446	-231.34923	1066.10596	9.02975	-148.56526	954.32489	49.70950	-97.64324	830.65704	77.21457	-127.40696	822.27035	93.14672	-66.40248	1229.05810	-533.55952	-34.41542	995.60100	-475.18019	-3.07513	1025.00214	-541.93752	101.69828	983.17589	-512.03248	220.09604	881.27212	-487.83106	205.77107	863.57008	-515.92439	-95.26063	868.45637	-151.10586	-110.33883	850.53408	-356.23253	-81.92301	851.95421	-171.94753	-101.27972	858.93145	-338.35536	
4	0.03000000	81.16582	495.84550	-96.78117	140.83185	447.57163	-110.08534	190.00682	105.73110	-92.47401	135.18353	56.95899	-127.14566	309.21334	75.96133	-65.31948	345.72131	119.02719	-119.50623	-226.78961	484.11252	-411.56235	-235.98057	380.82866	-421.42545	-429.79509	130.10223	-406.88320	-510.15441	108.05866	-366.46942	-346.44716	40.82859	-441.90167	-301.57086	57.10346	-384.89588	154.40414	334.96514	-81.01072	62.65003	435.93717	-81.98362	80.60249	324.57473	-75.07055	-311.10691	430.97288	-424.64337	-368.29751	322.95233	-433.34348	17.22731	809.30839	-82.74189	56.28552	702.12665	-83.17997	10.43697	663.77217	-53.12606	-88.31109	770.30202	-62.15398	-47.25643	660.27521	-66.87313	-125.48709	733.50803	-455.29900	-151.10546	601.36275	-432.73619	-221.75307	759.25195	-394.89672	-249.33296	620.56935	-389.92616	-6.60847	952.38421	-139.96411	-200.35058	977.53125	-202.10614	-15.88144	916.93618	-391.35848	-212.29524	980.95547	-301.58656	-202.36133	1389.15352	-315.80881	-120.70880	1362.98284	-126.50477	-106.21990	1338.35434	-483.54455	-67.10014	1349.55507	-280.52529	-59.29109	1347.66959	-323.59551	-141.81521	1241.83817	-43.26085	-225.76942	1035.17899	-56.09553	-218.39839	1063.25335	11.00450	-136.44112	950.99757	51.73758	-86.41284	826.95934	79.10566	-116.27242	818.66545	94.87167	-53.28481	1230.07163	-530.83957	-22.07378	995.44483	-473.76788	8.57058	1025.55541	-540.63318	113.09473	983.03309	-510.72907	230.96662	880.43177	-486.63414	216.71378	863.05256	-514.81975	-81.24403	868.48448	-148.93553	-97.46194	849.28381	-353.86004	-68.24566	852.02611	-169.80999	-88.22478	857.75135	-336.19925	
5	0.04000000	93.35141	495.66334	-95.25002	151.72194	446.00442	-109.14119	194.74978	103.54098	-92.17261	137.97416	58.39753	-127.37313	312.55425	69.42998	-65.50073	350.93104	111.17218	-119.49210	-213.71862	482.95729	-409.72423	-225.22382	379.86561	-420.27862	-425.72763	134.53002	-406.81243	-506.42139	115.13907	-366.38204	-345.53076	41.46447	-441.80004	-300.17679	56.48785	-385.04278	164.15014	333.18305	-80.22457	73.96892	435.60390	-80.32582	90.19424	323.96695	-73.77151	-298.94254	431.97025	-423.02593	-359.09764	325.55449	-432.10398	32.18144	810.06481	-81.68134	70.88254	702.57706	-82.17551	25.15739	664.71613	-51.39511	-73.00056	771.89489	-59.11978	-33.15786	661.64413	-64.17883	-112.88103	732.35673	-453.23258	-138.30665	600.12398	-430.96525	-208.73198	757.87148	-392.12328	-236.22677	619.13198	-387.32124	7.43659	952.85658	-138.63815	-186.75893	977.48293	-199.73499	-2.99863	915.75886	-389.71753	-199.07431	980.01082	-299.16825	-189.13964	1388.68104	-311.81563	-107.38748	1360.90206	-122.71798	-92.95341	1339.37052	-480.05071	-53.78648	1348.90873	-276.81890	-45.98873	1347.45237	-319.88329	-128.32843	1239.29444	-40.29088	-212.48353	1032.75799	-54.17411	-205.05150	1060.50606	13.02385	-123.79632	947.84327	53.65371	-74.49375	823.47099	80.79623	-104.43729	815.25025	96.42557	-40.18844	1231.21283	-528.07332	-10.29549	995.58601	-472.43397	19.96049	1026.19110	-539.33138	124.20471	982.83410	-509.41332	241.40628	879.36684	-485.50397	227.16285	862.32286	-513.78742	-67.08490	868.83315	-146.56239	-84.39127	848.24425	-351.26361	-54.44564	852.55892	-167.38254	-75.04658	856.78783	-333.71605	
